<?xml version="1.0" standalone="no"?>
<!DOCTYPE svg PUBLIC "-//W3C//DTD SVG 20010904//EN"
 "http://www.w3.org/TR/2001/REC-SVG-20010904/DTD/svg10.dtd">
<svg version="1.0" xmlns="http://www.w3.org/2000/svg"
 width="700.000000pt" height="700.000000pt" viewBox="0 0 700.000000 700.000000"
 preserveAspectRatio="xMidYMid meet">
<metadata>
Created by potrace 1.14, written by Peter Selinger 2001-2017
</metadata>
<g transform="translate(0.000000,700.000000) scale(0.100000,-0.100000)"
fill="#000000" stroke="none">
<path d="M0 3500 l0 -3500 3500 0 3500 0 0 3500 0 3500 -3500 0 -3500 0 0
-3500z m2460 2900 c362 -59 713 -210 1101 -474 71 -49 83 -53 183 -70 446 -72
869 -285 1195 -601 397 -385 632 -888 671 -1439 24 -338 -29 -678 -155 -987
l-47 -114 2 -225 c2 -406 -37 -641 -164 -994 -93 -260 -310 -552 -536 -722
-159 -120 -388 -218 -630 -270 -104 -22 -429 -26 -555 -5 -396 63 -778 228
-1163 504 -290 207 -501 405 -751 702 -318 379 -551 767 -756 1260 -145 347
-239 700 -292 1085 -25 189 -25 636 0 795 33 202 59 318 99 439 241 730 831
1164 1548 1141 69 -3 181 -14 250 -25z m4115 -1095 c26 -44 49 -81 50 -83 2
-2 40 15 85 38 45 23 85 39 88 36 3 -3 -10 -44 -28 -91 -18 -47 -31 -87 -29
-89 2 -2 42 -23 89 -47 l85 -43 -92 -29 c-69 -21 -93 -33 -93 -45 0 -9 9 -53
19 -97 11 -44 18 -81 17 -82 -1 -1 -39 23 -84 54 -45 31 -83 55 -85 52 -114
-143 -122 -152 -125 -133 -1 10 -6 55 -10 99 l-7 80 -100 3 -100 3 75 68 74
68 -62 76 c-34 41 -62 77 -62 80 0 2 37 -2 83 -9 122 -20 112 -27 137 82 12
52 23 94 25 92 2 -2 24 -39 50 -83z m-510 -787 l6 -58 67 0 66 0 -44 -45 c-49
-49 -49 -44 7 -112 l32 -40 -67 1 -67 1 -9 -57 c-5 -32 -12 -58 -16 -58 -3 0
-19 22 -35 50 -17 27 -34 50 -39 50 -5 0 -33 -14 -63 -30 -29 -17 -53 -29 -53
-27 0 2 9 30 20 62 11 32 20 60 20 62 0 2 -27 15 -61 30 l-61 26 54 20 c29 11
57 23 61 27 5 4 1 34 -7 66 -8 32 -14 59 -13 60 1 2 27 -12 57 -31 l54 -33 40
54 c23 30 42 51 43 47 1 -4 4 -34 8 -65z m677 -434 l61 -7 -42 -34 c-22 -19
-41 -39 -41 -44 0 -5 14 -28 30 -51 17 -23 28 -43 26 -45 -2 -2 -23 1 -47 6
-66 16 -67 15 -80 -44 -7 -30 -15 -55 -19 -55 -4 0 -17 23 -30 50 -13 28 -25
50 -26 50 -2 0 -28 -11 -59 -24 -30 -14 -55 -23 -55 -21 0 1 11 27 25 56 l25
54 -58 29 -57 29 60 17 c33 10 59 21 58 26 -20 115 -20 115 46 66 l35 -26 40
47 41 47 3 -60 3 -59 61 -7z m-6459 -836 c18 18 37 32 41 32 4 0 6 -21 4 -47
l-3 -47 53 -11 52 -10 -45 -29 -46 -28 27 -46 27 -45 -34 8 c-66 14 -70 13
-89 -35 l-18 -45 -16 39 c-9 21 -16 42 -16 47 0 13 -22 11 -70 -6 l-42 -15 28
47 c30 51 34 41 -35 93 l-25 18 53 7 54 7 -6 56 -6 55 40 -39 39 -38 33 32z
m311 -498 c6 1 28 7 49 14 20 8 37 12 37 9 0 -2 -10 -23 -21 -45 l-22 -42 24
-16 c12 -8 32 -22 43 -31 19 -16 18 -17 -33 -24 l-52 -7 7 -57 6 -56 -39 38
-39 37 -44 -37 -43 -37 7 51 c7 57 1 63 -60 63 -43 0 -43 9 1 39 41 28 42 33
14 78 -25 40 -22 47 15 33 49 -18 64 -13 77 28 18 57 20 58 42 8 11 -25 25
-46 31 -46z"/>
<path d="M1935 6290 c-477 -51 -867 -336 -1086 -794 -101 -212 -173 -485 -200
-763 -17 -167 -6 -519 21 -708 35 -251 101 -527 178 -755 262 -771 753 -1504
1332 -1989 314 -263 565 -418 876 -538 294 -115 452 -146 734 -147 221 0 305
12 475 69 321 108 598 364 775 718 59 117 141 365 169 508 34 180 63 539 43
539 -5 0 -12 -6 -15 -13 -3 -8 -39 -58 -80 -113 -85 -113 -257 -289 -367 -377
-494 -395 -1110 -564 -1750 -481 -172 22 -250 40 -414 95 -692 229 -1230 778
-1440 1469 -114 377 -120 837 -15 1230 76 286 212 555 401 792 223 280 459
468 788 626 251 122 440 176 715 208 77 8 167 19 200 22 l60 7 -69 44 c-99 62
-366 191 -483 234 -284 102 -591 144 -848 117z"/>
<path d="M3326 5841 c5 -5 36 -12 69 -15 58 -6 59 -5 30 9 -33 16 -115 21 -99
6z"/>
<path d="M3765 5774 c22 -20 55 -47 73 -61 l32 -26 41 28 c64 45 68 42 -91 79
-94 22 -100 20 -55 -20z"/>
<path d="M2790 5769 c-41 -10 -77 -22 -82 -27 -4 -4 -30 -45 -57 -92 l-51 -85
172 -6 c236 -8 445 -52 645 -134 98 -41 104 -42 129 -14 10 12 59 55 107 96
48 41 87 79 85 83 -2 4 -36 35 -75 68 -69 57 -78 61 -180 86 -180 42 -219 46
-422 45 -161 0 -209 -4 -271 -20z"/>
<path d="M3966 5705 c-25 -20 -46 -39 -46 -43 0 -4 37 -26 83 -49 263 -135
551 -372 754 -620 42 -51 78 -93 82 -93 3 0 65 21 138 46 154 54 152 35 22
177 -157 171 -380 343 -591 457 -76 41 -361 160 -383 160 -7 0 -33 -16 -59
-35z"/>
<path d="M2540 5686 c-120 -47 -279 -128 -388 -199 -51 -33 -91 -61 -90 -63 2
-1 46 13 98 33 92 34 232 72 334 89 48 9 51 11 93 83 24 41 42 77 41 82 -2 4
-41 -7 -88 -25z"/>
<path d="M3668 5467 c-59 -51 -107 -95 -107 -99 -1 -4 23 -20 52 -34 213 -108
475 -320 655 -528 l89 -103 59 24 c33 14 61 27 62 28 10 9 -165 243 -290 389
-71 83 -398 416 -408 415 -3 0 -53 -42 -112 -92z"/>
<path d="M2592 5502 c-31 -7 -38 -15 -92 -130 -39 -80 -55 -124 -47 -127 7 -2
49 -6 95 -9 149 -11 364 -77 534 -162 l71 -36 149 149 c81 81 147 152 145 157
-9 28 -270 109 -451 141 -99 17 -353 28 -404 17z"/>
<path d="M4070 5504 c0 -3 51 -60 113 -127 124 -134 277 -322 377 -464 36 -51
69 -93 75 -93 5 0 40 12 77 27 59 23 66 28 56 42 -137 180 -305 347 -473 471
-98 72 -225 154 -225 144z"/>
<path d="M2380 5470 c-147 -31 -301 -91 -422 -163 -68 -41 -69 -42 -90 -110
-11 -37 -18 -70 -16 -73 3 -2 37 9 76 26 97 41 258 80 366 87 48 3 92 11 97
17 13 15 109 215 109 227 0 12 -21 11 -120 -11z"/>
<path d="M3350 5171 c-82 -82 -150 -153 -150 -158 0 -5 15 -17 33 -27 70 -41
226 -166 319 -255 73 -70 239 -258 254 -289 2 -5 494 237 494 244 0 21 -247
273 -355 362 -122 99 -396 272 -432 272 -7 0 -80 -67 -163 -149z"/>
<path d="M1751 5153 c-59 -53 -205 -233 -196 -242 3 -2 24 14 49 37 24 22 76
62 115 87 65 44 71 51 86 102 9 30 15 59 13 64 -2 5 -32 -17 -67 -48z"/>
<path d="M2215 5174 c-137 -21 -286 -69 -361 -115 -31 -19 -32 -23 -53 -157
-12 -75 -21 -167 -19 -204 l3 -66 94 40 c91 39 244 78 308 78 27 0 32 4 38 33
4 17 36 113 71 211 35 99 64 183 64 188 0 11 -37 9 -145 -8z"/>
<path d="M2352 5023 c-33 -93 -67 -191 -75 -219 l-15 -51 87 -6 c107 -8 249
-44 361 -91 46 -20 88 -36 91 -36 7 0 309 365 309 374 0 11 -263 120 -343 141
-95 26 -268 55 -323 55 l-32 0 -60 -167z"/>
<path d="M1672 4934 c-82 -66 -178 -168 -229 -245 l-26 -40 6 -156 c3 -85 8
-158 11 -160 3 -3 17 10 32 28 46 57 172 176 218 205 l44 28 6 100 c4 56 14
146 22 200 8 55 14 101 14 103 0 11 -26 -5 -98 -63z"/>
<path d="M3001 4785 c-83 -101 -151 -188 -151 -192 1 -4 38 -32 83 -61 101
-64 211 -161 312 -272 42 -47 82 -85 89 -85 6 0 105 54 218 119 l206 120 -31
44 c-50 70 -223 248 -320 328 -71 60 -187 144 -243 177 -7 4 -72 -67 -163
-178z"/>
<path d="M4985 4904 c-66 -25 -120 -46 -121 -47 -1 -1 25 -45 58 -97 33 -52
92 -160 130 -240 38 -80 71 -146 72 -147 1 -2 66 18 144 42 89 29 142 51 142
59 0 25 -135 282 -199 379 -48 71 -70 97 -85 97 -12 -1 -75 -21 -141 -46z"/>
<path d="M4730 4808 c-30 -11 -59 -24 -63 -28 -4 -4 39 -85 96 -181 57 -96
116 -197 130 -226 15 -28 31 -54 37 -58 11 -7 140 32 140 42 0 4 -31 70 -69
147 -78 157 -183 326 -203 325 -7 0 -38 -9 -68 -21z"/>
<path d="M4451 4694 c-30 -14 -57 -26 -58 -28 -2 -2 32 -59 76 -126 45 -68
104 -168 131 -222 28 -54 57 -98 64 -98 12 0 107 30 115 36 9 8 -228 415 -263
451 -8 8 -24 5 -65 -13z"/>
<path d="M2104 4685 c-105 -16 -173 -38 -259 -83 l-69 -37 2 -115 c2 -103 12
-215 27 -306 l5 -31 84 28 c46 16 105 32 132 35 27 4 55 10 63 14 9 5 22 54
37 136 12 71 34 180 48 243 29 125 29 131 19 130 -5 -1 -44 -7 -89 -14z"/>
<path d="M2247 4693 c-16 -28 -97 -430 -97 -484 0 -16 7 -19 40 -19 51 0 170
-24 243 -49 l55 -19 55 91 c30 51 93 151 140 222 47 71 84 132 81 136 -9 15
-211 87 -284 103 -94 19 -226 30 -233 19z"/>
<path d="M4081 4524 c-129 -63 -237 -116 -239 -119 -2 -2 19 -41 48 -85 28
-45 79 -134 112 -198 34 -64 62 -118 63 -119 2 -3 528 188 535 194 19 17 -238
435 -270 440 -8 1 -120 -49 -249 -113z"/>
<path d="M1317 4467 c-72 -127 -121 -290 -154 -514 -15 -105 -15 -130 -4 -185
7 -35 16 -67 20 -71 5 -5 14 22 21 60 30 160 80 302 156 435 l45 78 -11 82
c-5 46 -10 106 -10 135 0 28 -4 54 -8 57 -4 2 -29 -32 -55 -77z"/>
<path d="M2767 4478 c-59 -83 -192 -296 -214 -344 -11 -23 -14 -39 -7 -41 46
-15 153 -93 229 -165 l91 -86 207 145 c194 136 206 146 195 166 -24 46 -247
255 -335 315 -50 34 -98 65 -106 68 -10 4 -29 -15 -60 -58z"/>
<path d="M1653 4477 c-69 -59 -148 -146 -182 -200 l-22 -36 46 -143 c25 -79
49 -149 54 -157 7 -11 20 -4 63 34 29 26 77 64 106 83 46 31 52 39 47 61 -10
51 -24 178 -31 294 -4 64 -10 117 -13 117 -3 0 -34 -24 -68 -53z"/>
<path d="M5287 4375 c-77 -24 -140 -45 -142 -47 -2 -2 16 -67 41 -146 66 -214
114 -498 114 -680 0 -43 3 -113 6 -155 6 -62 10 -77 23 -76 9 0 59 17 111 38
71 29 98 45 108 64 19 38 27 318 13 477 -6 74 -20 177 -31 228 -23 115 -79
306 -94 326 -9 12 -31 8 -149 -29z"/>
<path d="M3581 4260 c-112 -65 -208 -123 -213 -128 -7 -7 4 -31 30 -69 21 -32
63 -101 92 -153 28 -52 55 -99 60 -103 4 -4 111 34 238 84 l232 93 -56 105
c-45 85 -172 292 -178 290 0 0 -93 -54 -205 -119z"/>
<path d="M5018 4288 c-32 -11 -58 -24 -58 -29 0 -5 11 -31 24 -58 60 -118 174
-403 252 -630 27 -80 -7 248 -41 389 -29 122 -104 350 -113 349 -4 0 -33 -10
-64 -21z"/>
<path d="M4728 4192 c-27 -8 -48 -21 -48 -28 0 -8 11 -37 23 -66 99 -223 169
-540 183 -826 6 -115 9 -132 23 -128 9 3 68 19 131 36 63 17 117 33 119 36 8
7 -44 205 -91 354 -83 261 -248 641 -277 639 -9 0 -37 -8 -63 -17z"/>
<path d="M1396 4158 c-54 -83 -134 -334 -154 -483 l-9 -68 41 -50 c23 -28 46
-52 52 -54 5 -2 16 19 23 47 17 64 92 220 138 283 l34 49 -52 149 c-28 82 -53
149 -55 149 -2 0 -10 -10 -18 -22z"/>
<path d="M4356 4060 c-131 -48 -246 -91 -254 -96 -12 -8 -9 -24 23 -109 51
-137 89 -263 114 -379 23 -107 51 -324 51 -399 0 -44 2 -47 23 -42 12 3 132
23 267 45 134 23 246 43 249 45 2 3 3 57 2 122 -3 208 -42 441 -108 648 -53
167 -92 255 -111 254 -10 -1 -125 -41 -256 -89z"/>
<path d="M2135 4098 c-14 -106 -25 -228 -25 -285 0 -60 1 -63 24 -63 13 0 53
-9 87 -20 35 -10 64 -18 66 -16 7 6 173 359 171 361 -19 17 -246 65 -310 65
-4 0 -9 -19 -13 -42z"/>
<path d="M1955 4111 c-85 -26 -135 -49 -135 -64 0 -24 70 -311 78 -319 4 -4
25 -1 47 7 22 8 54 14 72 15 17 0 35 5 39 11 4 6 10 62 15 123 4 61 11 141 15
179 l7 67 -39 -1 c-22 0 -66 -8 -99 -18z"/>
<path d="M3185 4014 c-60 -42 -150 -105 -198 -141 -83 -62 -87 -67 -74 -87 7
-11 37 -61 67 -109 29 -48 56 -90 59 -92 7 -4 440 180 453 193 16 16 -160 313
-185 312 -7 -1 -61 -35 -122 -76z"/>
<path d="M2415 3874 c-47 -97 -85 -180 -85 -183 0 -3 17 -16 38 -28 21 -11 61
-42 89 -67 28 -25 55 -46 60 -46 5 0 20 12 34 26 13 14 79 71 147 126 67 56
122 104 122 109 0 30 -275 239 -315 239 -3 0 -44 -79 -90 -176z"/>
<path d="M1699 3976 c-35 -29 -77 -67 -92 -83 l-28 -30 61 -114 c89 -166 82
-159 127 -118 21 19 49 41 63 50 l24 16 -39 167 c-21 91 -41 166 -45 166 -3 0
-35 -24 -71 -54z"/>
<path d="M3802 3850 c-123 -49 -226 -91 -229 -94 -3 -2 11 -47 31 -98 70 -183
119 -393 132 -566 l7 -92 91 0 c85 0 257 12 354 25 l42 6 0 59 c0 109 -21 265
-54 410 -36 155 -126 432 -142 436 -5 2 -110 -37 -232 -86z"/>
<path d="M1503 3753 c-45 -74 -82 -158 -107 -243 -15 -51 -15 -55 1 -71 20
-19 192 -129 203 -129 3 0 11 26 18 58 7 31 28 88 47 126 34 68 34 69 16 95
-10 14 -44 72 -75 129 -31 56 -58 102 -59 102 -1 0 -21 -30 -44 -67z"/>
<path d="M2725 3668 c-66 -55 -135 -113 -152 -129 l-33 -28 38 -60 c20 -33 42
-60 48 -61 17 0 349 159 352 169 2 6 -2 20 -8 33 -18 35 -114 178 -120 178 -3
0 -59 -46 -125 -102z"/>
<path d="M3300 3645 c-118 -51 -221 -97 -229 -102 -11 -7 -7 -29 22 -118 42
-131 57 -207 66 -335 l6 -95 254 -3 c142 -1 259 2 264 7 12 12 -8 208 -34 336
-26 129 -118 409 -132 404 -1 0 -99 -42 -217 -94z"/>
<path d="M1967 3686 c-26 -7 -49 -15 -51 -17 -2 -2 21 -78 52 -169 77 -225 86
-223 90 18 l2 182 -22 -1 c-13 0 -44 -6 -71 -13z"/>
<path d="M2100 3516 c0 -177 1 -184 21 -189 15 -4 23 1 30 21 33 84 109 297
109 304 0 7 -63 27 -132 42 l-28 6 0 -184z"/>
<path d="M1814 3598 c-28 -26 -44 -48 -41 -58 7 -28 179 -250 193 -250 26 0
23 21 -25 154 -27 74 -52 149 -56 166 -4 16 -11 30 -16 30 -5 0 -30 -19 -55
-42z"/>
<path d="M1151 3540 c1 -52 4 -117 9 -145 6 -41 8 -31 9 62 0 61 3 117 6 125
3 7 -1 22 -9 33 -14 18 -15 11 -15 -75z"/>
<path d="M2242 3468 c-59 -159 -60 -163 -42 -182 19 -19 21 -17 139 93 67 63
121 119 121 125 0 21 -126 126 -151 126 -4 0 -34 -73 -67 -162z"/>
<path d="M1233 3345 c7 -247 41 -413 124 -598 40 -90 45 -53 8 58 -19 55 -41
143 -50 195 -17 107 -20 296 -5 384 l9 59 -46 46 -45 46 5 -190z"/>
<path d="M2820 3429 c-91 -43 -168 -80 -172 -81 -3 -2 7 -42 23 -90 16 -47 32
-120 35 -161 l7 -75 86 -6 c47 -3 137 -8 199 -12 l112 -7 0 64 c0 143 -74 441
-110 446 -8 1 -89 -34 -180 -78z"/>
<path d="M1711 3461 c-11 -21 -28 -69 -37 -106 -16 -63 -16 -69 -1 -80 28 -21
227 -96 236 -90 5 3 13 19 16 36 6 25 2 36 -18 57 -13 15 -57 71 -97 125 -40
53 -74 97 -76 97 -2 0 -12 -17 -23 -39z"/>
<path d="M2377 3352 c-108 -108 -133 -142 -107 -142 13 0 258 123 284 142 18
14 17 17 -15 66 -19 28 -36 52 -39 52 -3 0 -58 -53 -123 -118z"/>
<path d="M1363 3363 c-12 -59 -8 -321 6 -388 15 -72 60 -225 66 -225 2 0 56
34 120 76 69 45 115 81 112 88 -31 81 -59 197 -64 264 l-6 82 -56 32 c-31 17
-82 49 -113 70 l-57 38 -8 -37z"/>
<path d="M2445 3243 c-82 -42 -151 -76 -152 -77 0 0 3 -24 9 -53 9 -47 13 -52
42 -57 66 -11 306 -29 312 -23 10 9 -23 188 -43 240 l-18 45 -150 -75z"/>
<path d="M5438 3262 c-53 -21 -100 -40 -103 -44 -4 -3 2 -51 13 -105 12 -54
26 -142 33 -196 7 -54 16 -94 21 -89 26 26 146 434 136 461 -2 5 -47 -7 -100
-27z"/>
<path d="M2018 3265 c-14 -8 -36 -35 -48 -61 -18 -37 -22 -56 -17 -101 20
-197 223 -290 297 -137 60 122 -40 315 -163 314 -23 -1 -54 -7 -69 -15z"/>
<path d="M1663 3152 c5 -62 39 -206 52 -220 2 -2 48 20 104 47 l101 51 -7 47
c-3 27 -8 50 -10 53 -2 2 -58 26 -125 52 l-121 47 6 -77z"/>
<path d="M5030 3133 c-74 -20 -136 -37 -136 -37 -1 -1 -9 -62 -18 -136 -33
-263 -85 -447 -181 -645 -131 -267 -306 -471 -548 -636 -82 -57 -99 -79 -59
-79 21 0 138 49 273 113 91 44 356 213 407 260 72 66 237 355 315 552 45 112
127 402 127 447 0 42 -31 198 -39 197 -3 0 -67 -17 -141 -36z"/>
<path d="M4620 3044 c-107 -18 -225 -38 -261 -44 l-66 -11 -6 -112 c-11 -212
-71 -464 -153 -645 -74 -161 -212 -356 -319 -449 -30 -25 -52 -49 -50 -53 2
-3 52 -26 110 -50 l107 -43 41 20 c121 60 325 239 446 392 98 125 216 352 272
524 48 147 107 509 83 506 -5 -1 -97 -16 -204 -35z"/>
<path d="M2305 2988 c-4 -13 -14 -38 -23 -57 l-15 -33 123 -117 c68 -64 128
-116 134 -116 32 0 126 209 126 280 0 39 4 38 -174 55 -156 14 -163 14 -171
-12z"/>
<path d="M1838 2939 c-54 -27 -98 -51 -98 -54 0 -15 74 -115 80 -108 4 4 35
46 69 92 93 128 85 139 -51 70z"/>
<path d="M4155 2979 c-33 -4 -116 -10 -185 -14 -69 -3 -148 -8 -176 -11 l-51
-5 -6 -112 c-17 -321 -122 -611 -302 -831 l-48 -59 23 -19 c13 -10 83 -53 156
-94 105 -59 137 -73 152 -65 32 17 178 175 231 252 173 245 252 493 286 897 5
56 3 72 -7 71 -7 -1 -40 -5 -73 -10z"/>
<path d="M2715 2965 c-2 -5 -10 -42 -19 -82 -17 -82 -61 -176 -107 -227 -17
-20 -29 -39 -27 -44 4 -11 286 -266 298 -270 13 -5 97 112 136 190 19 37 45
101 59 141 25 76 60 265 50 275 -11 11 -387 28 -390 17z"/>
<path d="M3152 2853 c-22 -174 -93 -350 -197 -492 -26 -35 -45 -64 -43 -65 2
-2 48 -39 103 -82 130 -104 310 -234 323 -234 19 0 141 173 191 270 98 191
161 448 161 655 l0 45 -263 0 -263 0 -12 -97z"/>
<path d="M1915 2826 l-66 -95 38 -35 c21 -20 41 -36 44 -36 7 0 69 211 69 234
0 38 -24 19 -85 -68z"/>
<path d="M2202 2854 c-19 -8 -32 -20 -32 -31 0 -10 15 -76 33 -148 38 -149 35
-147 139 -120 60 15 138 57 138 73 0 4 -56 59 -123 123 l-123 117 -32 -14z"/>
<path d="M1635 2828 c-40 -25 -97 -66 -174 -125 -13 -9 129 -241 173 -282 l25
-23 16 58 c9 33 37 105 62 161 l45 102 -46 70 c-25 39 -47 71 -48 71 -2 0 -25
-14 -53 -32z"/>
<path d="M2007 2750 c-15 -58 -27 -110 -27 -117 0 -6 16 -20 35 -32 l35 -20
-1 97 c0 53 -3 115 -7 137 -7 39 -8 37 -35 -65z"/>
<path d="M2095 2703 c4 -76 9 -140 10 -141 2 -2 22 -6 44 -9 32 -4 40 -3 37 8
-2 8 -19 74 -36 147 -24 97 -36 132 -47 132 -13 0 -14 -19 -8 -137z"/>
<path d="M5217 2734 c-41 -134 -93 -267 -155 -394 -37 -74 -68 -139 -70 -145
-12 -31 80 79 168 200 l102 140 -7 96 c-4 53 -10 111 -14 129 -6 33 -7 32 -24
-26z"/>
<path d="M1786 2623 c-34 -68 -73 -182 -81 -234 l-6 -44 80 -62 c112 -89 111
-89 111 -7 0 38 7 124 16 191 l17 123 -44 40 c-24 21 -50 39 -56 40 -7 0 -23
-21 -37 -47z"/>
<path d="M1410 2642 c0 -27 219 -372 236 -372 2 0 4 10 4 23 0 12 -31 61 -71
112 -39 49 -91 124 -116 167 -42 74 -53 88 -53 70z"/>
<path d="M2442 2539 c-40 -21 -94 -41 -122 -45 -28 -4 -53 -11 -56 -16 -8 -12
10 -64 83 -235 51 -119 69 -153 84 -153 36 0 168 48 233 84 36 20 88 58 116
84 l51 47 -149 135 c-82 74 -153 135 -158 136 -5 1 -42 -16 -82 -37z"/>
<path d="M1956 2528 c-13 -64 -26 -274 -20 -315 5 -38 10 -43 53 -61 53 -23
161 -56 166 -50 2 2 -9 47 -25 101 -16 54 -37 137 -45 185 -9 48 -18 96 -20
107 -3 16 -78 65 -99 65 -2 0 -6 -15 -10 -32z"/>
<path d="M2110 2492 c0 -55 81 -364 101 -389 10 -12 149 -23 149 -12 0 4 -15
40 -34 80 -18 41 -52 126 -75 189 -24 63 -46 118 -49 121 -12 12 -92 21 -92
11z"/>
<path d="M1700 2249 c0 -12 9 -37 21 -55 20 -33 196 -204 210 -204 4 0 -3 33
-15 72 -22 70 -25 74 -88 118 -36 25 -79 55 -96 68 l-32 23 0 -22z"/>
<path d="M2806 2210 c-91 -75 -190 -122 -354 -166 -23 -6 95 -178 199 -289 70
-74 78 -76 213 -51 95 19 177 52 275 111 75 46 169 121 161 128 -83 66 -422
317 -427 316 -4 0 -34 -22 -67 -49z"/>
<path d="M1953 2077 c27 -104 84 -176 209 -258 77 -50 175 -96 185 -85 2 2
-19 41 -47 87 -28 46 -65 114 -82 152 -18 37 -37 67 -44 67 -6 0 -52 12 -100
26 -49 15 -98 29 -108 32 -16 4 -18 1 -13 -21z"/>
<path d="M2250 2020 c0 -31 141 -270 177 -302 26 -22 223 -51 223 -32 0 3 -23
31 -51 62 -28 32 -85 108 -126 170 l-75 112 -74 0 c-44 0 -74 -4 -74 -10z"/>
<path d="M3296 1864 c-96 -88 -258 -169 -420 -208 l-90 -22 45 -31 c24 -17 71
-44 104 -60 59 -29 62 -30 160 -22 145 12 281 49 411 114 98 49 156 88 143 98
-12 11 -278 167 -290 171 -8 3 -36 -15 -63 -40z"/>
<path d="M3661 1664 c-79 -53 -244 -129 -336 -155 -44 -12 -84 -27 -90 -32
-16 -15 279 -1 365 17 132 29 329 101 313 116 -6 7 -189 90 -196 90 -1 0 -27
-16 -56 -36z"/>
<path d="M2550 1629 c0 -9 204 -76 255 -84 l40 -7 -40 27 c-22 16 -49 36 -60
45 -15 14 -42 19 -108 22 -48 1 -87 0 -87 -3z"/>
<path d="M3965 1570 l-20 -9 20 0 c11 0 27 4 35 9 13 9 13 10 0 9 -8 0 -24 -4
-35 -9z"/>
</g>
</svg>
