<?xml version="1.0" encoding="utf-8"?>
<!-- Generator: Adobe Illustrator 28.0.0, SVG Export Plug-In . SVG Version: 6.00 Build 0)  -->
<svg version="1.1" xmlns="http://www.w3.org/2000/svg" xmlns:xlink="http://www.w3.org/1999/xlink" x="0px" y="0px"
	 viewBox="0 0 64 64" style="enable-background:new 0 0 64 64;" xml:space="preserve">
<style type="text/css">
	.st0{fill:#ffffff;}
	.st1{fill:#ffffff;stroke:#ffffff;stroke-width:0.25;stroke-miterlimit:10;}
	.st2{fill:#ffffff;}
</style>
<g id="Layer_1">
	<g id="V4FBMw.tif">
		<g>
			<path class="st1" d="M20.54,5.31c0.03,0.01,0.06,0.03,0.09,0.03c0.53,0.06,1.06,0.1,1.58,0.18c0.62,0.1,1.23,0.21,1.84,0.35
				c1.13,0.27,2.21,0.68,3.28,1.12c0.98,0.4,1.92,0.88,2.84,1.42c0.69,0.41,1.36,0.84,2.03,1.27c0.26,0.17,0.52,0.35,0.76,0.55
				c0.16,0.13,0.34,0.18,0.54,0.2c1.01,0.1,1.99,0.34,2.97,0.61c1.49,0.41,2.9,1.02,4.26,1.74c0.88,0.47,1.7,1.02,2.49,1.61
				c0.82,0.6,1.57,1.28,2.28,2c1.05,1.06,1.96,2.24,2.75,3.51c0.51,0.82,0.94,1.68,1.34,2.55c0.51,1.13,0.89,2.31,1.16,3.53
				c0.14,0.61,0.25,1.23,0.35,1.85c0.06,0.43,0.09,0.87,0.11,1.3c0.03,0.54,0.08,1.09,0.06,1.63c-0.02,0.69-0.08,1.37-0.14,2.06
				c-0.12,1.52-0.49,2.99-0.99,4.42c-0.23,0.66-0.54,1.3-0.78,1.96c-0.06,0.17-0.03,0.37-0.02,0.56c0.01,0.31,0.06,0.63,0.06,0.94
				c0.01,0.71,0.03,1.42-0.01,2.13c-0.04,0.78-0.11,1.56-0.21,2.33c-0.12,1.02-0.29,2.03-0.59,3.01c-0.24,0.81-0.5,1.61-0.8,2.4
				c-0.21,0.56-0.48,1.09-0.78,1.61c-0.41,0.71-0.85,1.41-1.33,2.07c-0.5,0.69-1.13,1.28-1.75,1.86c-0.53,0.49-1.09,0.93-1.71,1.3
				c-0.52,0.31-1.06,0.59-1.61,0.85c-0.44,0.21-0.89,0.39-1.35,0.53c-0.56,0.18-1.14,0.32-1.72,0.46c-1.05,0.25-2.12,0.27-3.19,0.26
				c-1-0.01-1.99-0.11-2.97-0.31c-0.85-0.18-1.69-0.38-2.51-0.65c-0.94-0.31-1.86-0.69-2.76-1.11c-1.3-0.6-2.52-1.33-3.7-2.13
				c-0.74-0.51-1.47-1.04-2.18-1.58c-0.51-0.39-0.99-0.81-1.46-1.24c-0.61-0.56-1.21-1.13-1.8-1.71c-0.38-0.37-0.75-0.76-1.11-1.16
				c-0.51-0.58-1.01-1.17-1.5-1.77c-0.39-0.47-0.78-0.95-1.14-1.44c-0.41-0.56-0.8-1.13-1.18-1.71c-0.48-0.73-0.95-1.47-1.4-2.22
				c-0.3-0.5-0.58-1.03-0.85-1.55c-0.33-0.62-0.66-1.24-0.95-1.89c-0.46-1.02-0.9-2.04-1.31-3.07c-0.31-0.78-0.6-1.57-0.84-2.38
				c-0.29-0.95-0.54-1.92-0.78-2.89c-0.18-0.72-0.33-1.45-0.45-2.19c-0.11-0.65-0.17-1.32-0.26-1.98c-0.15-1.1-0.2-2.2-0.17-3.3
				c0.02-0.82,0.01-1.64,0.08-2.45c0.08-0.87,0.24-1.73,0.38-2.59c0.16-1.03,0.47-2.01,0.81-2.99c0.39-1.12,0.92-2.18,1.54-3.2
				c0.5-0.83,1.09-1.58,1.74-2.3c0.56-0.62,1.18-1.15,1.84-1.66c0.71-0.55,1.47-1.03,2.29-1.4c0.99-0.45,2.01-0.81,3.08-1.02
				c0.7-0.13,1.41-0.24,2.13-0.25c0.03,0,0.06-0.02,0.09-0.03C19.5,5.31,20.02,5.31,20.54,5.31z M30.89,10.25
				c-0.08-0.05-0.12-0.09-0.16-0.11C30.16,9.79,29.59,9.42,29,9.1c-0.77-0.41-1.54-0.8-2.34-1.15c-0.59-0.27-1.21-0.48-1.83-0.69
				c-0.59-0.19-1.18-0.36-1.78-0.5c-0.55-0.13-1.11-0.22-1.68-0.29c-0.64-0.08-1.27-0.15-1.92-0.16c-0.58-0.01-1.16,0.05-1.74,0.1
				c-0.33,0.03-0.66,0.06-0.98,0.13c-0.54,0.12-1.08,0.24-1.61,0.41c-0.54,0.17-1.07,0.37-1.58,0.63c-0.56,0.28-1.09,0.61-1.61,0.96
				c-0.38,0.25-0.74,0.54-1.09,0.85c-0.35,0.31-0.67,0.66-0.98,1.01c-0.37,0.42-0.73,0.86-1.05,1.32c-0.64,0.94-1.17,1.94-1.58,3
				c-0.39,1-0.71,2.01-0.94,3.06c-0.2,0.93-0.34,1.87-0.44,2.81c-0.07,0.66-0.1,1.32-0.11,1.98c0,0.81,0.04,1.61,0.07,2.42
				c0.01,0.34,0.03,0.69,0.07,1.03c0.06,0.53,0.13,1.06,0.21,1.58c0.07,0.5,0.15,1.01,0.25,1.51c0.19,0.89,0.38,1.79,0.61,2.67
				c0.34,1.26,0.72,2.51,1.21,3.71c0.44,1.08,0.87,2.18,1.36,3.24c0.47,0.99,0.98,1.97,1.53,2.92c0.6,1.03,1.25,2.04,1.92,3.02
				c0.56,0.82,1.17,1.61,1.78,2.4c0.36,0.47,0.75,0.91,1.13,1.36c0.26,0.3,0.52,0.59,0.79,0.87c0.45,0.48,0.89,0.97,1.37,1.42
				c0.65,0.61,1.31,1.21,1.99,1.78c0.65,0.54,1.31,1.06,1.99,1.57c1.03,0.77,2.13,1.44,3.27,2.04c0.73,0.38,1.48,0.74,2.24,1.05
				c0.84,0.34,1.7,0.63,2.57,0.89c0.98,0.29,1.98,0.5,3,0.57c0.55,0.04,1.1,0.11,1.65,0.09c0.75-0.01,1.5-0.05,2.24-0.19
				c0.79-0.15,1.56-0.32,2.31-0.6c0.72-0.27,1.4-0.64,2.06-1.03c0.77-0.47,1.47-1.03,2.11-1.67c0.56-0.56,1.1-1.15,1.53-1.83
				c0.32-0.5,0.64-1.01,0.93-1.53c0.37-0.65,0.68-1.33,0.91-2.04c0.22-0.67,0.45-1.34,0.63-2.02c0.27-0.97,0.43-1.97,0.53-2.97
				c0.08-0.72,0.1-1.44,0.15-2.16c0.01-0.16,0.01-0.32,0.01-0.47c0-0.26,0-0.52,0-0.78c-0.06,0.01-0.07,0.02-0.08,0.04
				c-0.64,1-1.34,1.95-2.16,2.82c-0.81,0.86-1.67,1.68-2.62,2.39c-0.99,0.74-2.01,1.41-3.11,1.96c-1.12,0.56-2.27,1.04-3.47,1.39
				c-1.21,0.35-2.42,0.64-3.68,0.74c-0.61,0.05-1.22,0.12-1.83,0.14c-0.86,0.03-1.72,0-2.57-0.1c-0.55-0.07-1.11-0.13-1.66-0.21
				c-0.99-0.15-1.97-0.41-2.92-0.73c-1.48-0.49-2.89-1.14-4.22-1.95c-1.07-0.65-2.08-1.38-3-2.21c-0.5-0.45-0.96-0.95-1.44-1.43
				c-0.61-0.61-1.12-1.31-1.62-2c-1.03-1.42-1.83-2.96-2.44-4.6c-0.49-1.31-0.86-2.67-1.03-4.07c-0.08-0.66-0.18-1.31-0.2-1.98
				c-0.03-1.17-0.05-2.34,0.13-3.51c0.09-0.6,0.16-1.2,0.29-1.8c0.34-1.61,0.87-3.16,1.6-4.64c0.52-1.07,1.13-2.09,1.84-3.04
				c0.48-0.63,0.98-1.25,1.52-1.83c0.74-0.8,1.54-1.56,2.42-2.22c0.79-0.6,1.6-1.17,2.47-1.64c0.72-0.39,1.47-0.74,2.22-1.08
				c1.11-0.5,2.27-0.84,3.45-1.09c0.71-0.15,1.42-0.26,2.14-0.35c0.62-0.08,1.25-0.11,1.88-0.15
				C30.34,10.24,30.59,10.25,30.89,10.25z M34.18,48.21c0.75,0.31,1.49,0.62,2.22,0.92c0.04,0.02,0.1,0,0.15-0.03
				c0.27-0.15,0.53-0.31,0.79-0.47c0.66-0.43,1.31-0.88,1.87-1.44c0.57-0.58,1.15-1.16,1.65-1.79c0.44-0.55,0.81-1.15,1.17-1.76
				c0.3-0.5,0.56-1.01,0.8-1.54c0.39-0.89,0.71-1.82,0.93-2.77c0.15-0.67,0.25-1.35,0.36-2.03c0.04-0.26,0.08-0.52,0.1-0.78
				c0.03-0.27,0.03-0.53,0.04-0.77c-1.71,0.28-3.41,0.56-5.12,0.85c0,0,0,0.03,0,0.06c0.02,0.75-0.02,1.51-0.14,2.25
				c-0.1,0.64-0.19,1.28-0.34,1.91c-0.3,1.24-0.73,2.42-1.34,3.55c-0.59,1.07-1.28,2.07-2.16,2.93
				C34.86,47.61,34.54,47.89,34.18,48.21z M37.21,27.74c1.21,2.77,1.89,5.61,1.94,8.64c1.73-0.29,3.44-0.58,5.14-0.86
				c0.06-3.38-0.57-6.56-1.96-9.63C40.62,26.51,38.93,27.12,37.21,27.74z M34.14,36.94c-0.02,3.49-0.91,6.67-3.33,9.31
				c0.37,0.23,0.72,0.47,1.09,0.68c0.62,0.36,1.25,0.71,1.88,1.05c0.04,0.02,0.13,0.02,0.17,0c0.65-0.54,1.25-1.14,1.79-1.8
				c0.51-0.63,0.94-1.32,1.33-2.03c0.42-0.78,0.75-1.59,0.99-2.44c0.16-0.58,0.32-1.17,0.44-1.76c0.09-0.42,0.14-0.86,0.19-1.29
				c0.03-0.27,0.06-0.53,0.08-0.8c0.03-0.41,0.04-0.82,0.07-1.25c-0.1,0-0.18-0.01-0.26,0c-0.29,0.03-0.59,0.07-0.88,0.1
				c-0.43,0.04-0.87,0.08-1.3,0.11c-0.54,0.03-1.09,0.05-1.63,0.07C34.55,36.91,34.35,36.93,34.14,36.94z M26.46,42.98
				c1.31,1.09,2.65,2.13,4.08,3.08c1.38-1.45,2.25-3.15,2.77-5.04c0.37-1.33,0.52-2.69,0.5-4.07c-1.68,0-3.32,0-4.98,0
				C28.71,39.21,27.99,41.24,26.46,42.98z M39.51,21.22c-2.03-2.54-4.47-4.59-7.43-6c-1.05,0.95-2.05,1.94-3,2.99
				c2.29,1.38,4.16,3.18,5.71,5.3C36.36,22.75,37.93,21.99,39.51,21.22z M44.63,35.64c-0.06,0.54-0.09,1.07-0.17,1.59
				c-0.09,0.64-0.18,1.28-0.32,1.92c-0.21,0.93-0.49,1.85-0.86,2.73c-0.32,0.76-0.7,1.49-1.11,2.2c-0.43,0.74-0.94,1.43-1.51,2.06
				c-0.43,0.48-0.88,0.94-1.36,1.36c-0.45,0.4-0.95,0.75-1.44,1.1c-0.33,0.24-0.69,0.44-1.05,0.67c0.14,0.05,0.28,0.09,0.41,0.15
				c0.15,0.06,0.28,0.06,0.43-0.01c0.49-0.21,1-0.4,1.48-0.62c0.61-0.29,1.23-0.57,1.81-0.91c0.75-0.45,1.47-0.96,2.19-1.46
				c0.26-0.18,0.53-0.36,0.72-0.6c0.34-0.42,0.63-0.89,0.93-1.34c0.5-0.77,0.93-1.57,1.3-2.41c0.27-0.61,0.55-1.22,0.76-1.86
				c0.3-0.94,0.55-1.89,0.81-2.84c0.06-0.2,0.13-0.42,0.1-0.61c-0.09-0.62-0.23-1.24-0.35-1.85C46.46,35.15,45.54,35.4,44.63,35.64z
				 M34.13,36.67c0.03,0.01,0.04,0.02,0.06,0.02c0.44-0.01,0.89-0.02,1.33-0.03c0.2-0.01,0.4-0.02,0.59-0.03
				c0.56-0.04,1.12-0.09,1.69-0.14c0.31-0.03,0.61-0.06,0.92-0.11c0.04,0,0.1-0.08,0.09-0.12c-0.04-0.66-0.08-1.32-0.14-1.98
				c-0.04-0.44-0.09-0.89-0.18-1.33c-0.17-0.78-0.33-1.57-0.56-2.34c-0.28-0.93-0.62-1.83-0.94-2.78c-1.53,0.6-3.02,1.19-4.51,1.78
				c0.5,1.14,0.89,2.28,1.17,3.46C33.94,34.25,34.09,35.45,34.13,36.67z M30.4,26.05c1.37-0.8,2.73-1.6,4.11-2.39
				c-1.55-2.09-3.42-3.85-5.71-5.21c-0.98,1.19-1.95,2.38-2.95,3.6C27.68,23.07,29.16,24.45,30.4,26.05z M32.23,29.7
				c-1.49,0.64-2.96,1.27-4.43,1.91c0.33,0.81,0.62,1.62,0.78,2.47c0.17,0.86,0.28,1.72,0.24,2.63c1.68,0,3.33,0,4.99,0
				C33.77,34.27,33.25,31.95,32.23,29.7z M48.56,34.29c0.64-0.25,1.29-0.49,1.92-0.75c0.21-0.09,0.44-0.18,0.39-0.5
				c-0.01-0.09,0.02-0.2,0.03-0.29c0.05-0.6,0.13-1.21,0.13-1.81c0-0.75-0.05-1.51-0.1-2.26c-0.03-0.5-0.09-1.01-0.18-1.5
				c-0.18-0.99-0.43-1.97-0.75-2.93c-0.09-0.25-0.18-0.5-0.27-0.77c-0.97,0.3-1.91,0.59-2.86,0.89c0,0.02,0.01,0.04,0.01,0.06
				c0.27,0.82,0.57,1.64,0.78,2.47c0.22,0.84,0.36,1.71,0.5,2.57c0.09,0.51,0.12,1.04,0.18,1.56c0.03,0.24,0.03,0.49,0.04,0.73
				c0.02,0.41,0.03,0.82,0.03,1.23C48.43,33.43,48.39,33.86,48.56,34.29z M25.65,21.93c0.99-1.21,1.97-2.41,2.96-3.63
				c-0.62-0.29-1.23-0.58-1.86-0.85c-0.76-0.33-1.55-0.55-2.36-0.72c-0.74-0.15-1.48-0.23-2.22-0.27c-0.11,0-0.17,0.03-0.21,0.13
				c-0.32,0.87-0.65,1.74-0.96,2.62c-0.16,0.46-0.29,0.94-0.44,1.43C22.41,20.62,24.09,21.12,25.65,21.93z M28.83,18.06
				c1-1.01,1.98-1.99,2.96-2.98c0.03,0.03,0.03,0.02,0.02,0.01c-0.87-0.38-1.76-0.74-2.69-0.96c-0.59-0.14-1.19-0.27-1.8-0.39
				c-0.34-0.06-0.68-0.08-1.02-0.11c-0.48-0.04-0.97-0.09-1.45-0.09c-0.4-0.01-0.8,0.04-1.2,0.06c-0.18,0.01-0.31,0.07-0.4,0.26
				c-0.23,0.5-0.48,0.98-0.72,1.47c-0.12,0.26-0.24,0.52-0.36,0.81c1.21,0,2.35,0.21,3.47,0.55C26.77,17.02,27.84,17.49,28.83,18.06
				z M23.57,13.29c0.33-0.03,0.62-0.06,0.92-0.07c0.91-0.02,1.81,0.05,2.71,0.17c0.89,0.12,1.74,0.34,2.6,0.59
				c0.76,0.22,1.48,0.52,2.2,0.84c0.1,0.05,0.16,0.02,0.23-0.03c0.24-0.22,0.48-0.44,0.73-0.66c0.28-0.24,0.56-0.47,0.84-0.71
				c0.2-0.17,0.4-0.33,0.6-0.51c-0.4-0.33-0.78-0.65-1.16-0.95c-0.16-0.13-0.31-0.29-0.5-0.34c-0.55-0.16-1.11-0.3-1.68-0.41
				c-0.73-0.15-1.47-0.3-2.22-0.27c-0.86,0.02-1.73,0-2.59,0.07c-0.5,0.04-0.99,0.24-1.49,0.37c-0.04,0.01-0.08,0.05-0.1,0.08
				c-0.12,0.2-0.24,0.39-0.36,0.59C24.06,12.45,23.83,12.86,23.57,13.29z M42.24,25.68c-0.68-1.52-1.56-2.91-2.59-4.27
				c-1.57,0.76-3.15,1.52-4.74,2.29c0.89,1.23,1.59,2.52,2.21,3.84C38.84,26.91,40.54,26.3,42.24,25.68z M30.33,46.26
				c-1.36-1.03-2.71-2.05-4.08-3.09c-1.09,1.13-2.47,1.81-4.08,2.09c0.15,0.25,0.27,0.47,0.41,0.68c0.62,0.98,1.32,1.89,2.2,2.66
				c0.05,0.04,0.13,0.09,0.2,0.08c0.51-0.07,1.03-0.12,1.53-0.23c0.79-0.17,1.5-0.53,2.19-0.93C29.31,47.17,29.84,46.73,30.33,46.26
				z M26.18,29c1.32-0.93,2.64-1.85,3.96-2.78c-1.22-1.57-2.68-2.9-4.43-3.88c-0.56,0.66-2.56,3.84-2.66,4.21
				C24.29,27.12,25.3,28,26.18,29z M46.89,18.38c-0.47-0.54-0.9-1.06-1.36-1.55c-0.42-0.44-0.88-0.86-1.34-1.27
				c-0.46-0.4-0.94-0.8-1.44-1.15c-0.68-0.47-1.37-0.92-2.09-1.33c-0.5-0.3-1.03-0.55-1.57-0.78c-0.66-0.28-1.34-0.5-1.99-0.79
				c-0.31-0.14-0.51-0.02-0.73,0.15c-0.03,0.03-0.06,0.05-0.1,0.07c-0.23,0.18-0.46,0.36-0.69,0.53c0.56,0.29,1.12,0.56,1.66,0.86
				c0.5,0.28,0.99,0.59,1.46,0.91c0.49,0.34,0.96,0.71,1.43,1.07c0.37,0.29,0.74,0.58,1.07,0.9c0.58,0.57,1.15,1.15,1.69,1.76
				c0.41,0.46,0.79,0.96,1.17,1.45c0.08,0.11,0.14,0.13,0.27,0.08c0.5-0.19,1.01-0.37,1.51-0.55
				C46.17,18.63,46.51,18.51,46.89,18.38z M19.51,25.78c0.08,0,0.15,0,0.22,0c0.55-0.01,1.09,0.05,1.62,0.18
				c0.45,0.12,0.89,0.27,1.33,0.42c0.09,0.03,0.14,0.04,0.19-0.06c0.22-0.4,0.44-0.8,0.68-1.19c0.44-0.71,0.9-1.4,1.36-2.1
				c0.18-0.27,0.37-0.54,0.56-0.82c-0.04-0.02-0.06-0.03-0.09-0.05c-0.59-0.33-1.23-0.56-1.87-0.77c-0.54-0.18-1.09-0.31-1.66-0.35
				c-0.41-0.03-0.83-0.07-1.24-0.1c-0.1-0.01-0.15,0.02-0.17,0.14c-0.1,0.45-0.23,0.89-0.33,1.34c-0.13,0.61-0.25,1.23-0.37,1.85
				C19.67,24.77,19.6,25.27,19.51,25.78z M24.71,36.7c-0.09,1.3-0.51,2.46-1.48,3.41c0.98,0.89,1.96,1.78,2.95,2.67
				c0.96-1.07,1.59-2.26,1.96-3.59c0.21-0.75,0.33-1.51,0.37-2.27C27.24,36.85,25.98,36.78,24.71,36.7z M34.57,13.05
				c-0.75,0.65-1.49,1.27-2.24,1.92c3.02,1.47,5.44,3.58,7.48,6.15c0.44-0.19,0.88-0.38,1.32-0.57
				C39.25,17.77,37.07,15.29,34.57,13.05z M47.34,34.68c-0.74-3.27-1.89-6.36-3.38-9.34c-0.46,0.16-0.91,0.31-1.36,0.47
				c1.38,3.05,2.08,6.23,2.01,9.6C45.54,35.16,46.44,34.92,47.34,34.68z M34.64,23.85c-1.37,0.8-2.73,1.59-4.1,2.39
				c0.67,0.94,1.25,1.86,1.72,2.86c0.15,0.31,0.15,0.3,0.48,0.17c1.01-0.4,2.01-0.8,3.02-1.2c0.36-0.14,0.73-0.29,1.1-0.44
				C36.23,26.31,35.52,25.04,34.64,23.85z M21.75,16.46c-0.04,0-0.1,0-0.16,0c-0.38,0.03-0.77,0.05-1.15,0.11
				c-0.51,0.08-1.03,0.17-1.52,0.3c-0.68,0.18-1.34,0.42-1.96,0.77c-0.23,0.13-0.42,0.25-0.42,0.55c0,0.07-0.04,0.14-0.05,0.22
				c-0.08,0.49-0.15,0.98-0.23,1.48c-0.04,0.29-0.09,0.59-0.1,0.88c-0.02,0.36,0,0.72,0,1.08c0.11-0.06,0.23-0.12,0.35-0.18
				c0.44-0.19,0.88-0.41,1.34-0.57c0.76-0.26,1.54-0.41,2.34-0.45c0.11,0,0.15-0.04,0.18-0.15c0.09-0.33,0.18-0.65,0.29-0.98
				C21.03,18.51,21.38,17.49,21.75,16.46z M16.48,26.55c0.88-0.39,1.77-0.69,2.72-0.74c0.04,0,0.1-0.06,0.11-0.1
				c0.04-0.23,0.07-0.47,0.11-0.7c0.1-0.57,0.19-1.15,0.31-1.72c0.16-0.78,0.35-1.55,0.52-2.34c-0.08,0.01-0.17,0.03-0.25,0.03
				c-0.38,0.05-0.77,0.08-1.16,0.15c-0.92,0.16-1.77,0.52-2.57,1.01c-0.06,0.04-0.13,0.13-0.13,0.19c0,0.56,0.02,1.11,0.03,1.67
				c0,0.16,0.02,0.33,0.04,0.49c0.04,0.38,0.09,0.76,0.14,1.14C16.38,25.93,16.43,26.24,16.48,26.55z M28.54,36.69
				c0.03-1.74-0.27-3.38-1.01-4.96c-1.17,0.55-2.34,1.1-3.51,1.66c0.44,1,0.72,2,0.68,3.06c0.2,0.02,0.37,0.04,0.54,0.05
				c0.46,0.03,0.92,0.05,1.38,0.07c0.24,0.01,0.48,0.03,0.72,0.04C27.73,36.64,28.11,36.67,28.54,36.69z M44.31,19.54
				c0.03,0.05,0.03,0.08,0.05,0.1c0.4,0.63,0.83,1.24,1.18,1.9c0.43,0.81,0.8,1.65,1.19,2.48c0.05,0.1,0.07,0.15,0.2,0.1
				c0.57-0.19,1.14-0.36,1.71-0.55c0.33-0.11,0.66-0.22,1-0.34c-0.18-0.4-0.33-0.76-0.5-1.12c-0.55-1.18-1.21-2.29-1.98-3.33
				c-0.11-0.15-0.21-0.18-0.36-0.13c-0.33,0.11-0.66,0.22-0.98,0.33C45.32,19.18,44.82,19.36,44.31,19.54z M25.22,48.98
				c0.63,0.5,1.28,0.89,1.98,1.22c0.08,0.03,0.17,0.05,0.25,0.04c0.31-0.02,0.62-0.05,0.94-0.06c0.58-0.02,1.13-0.15,1.69-0.28
				c1.32-0.31,2.5-0.91,3.55-1.69c-0.96-0.58-1.93-1.16-2.9-1.74c-0.04-0.02-0.11-0.02-0.15,0c-0.07,0.04-0.13,0.09-0.19,0.15
				c-0.7,0.69-1.53,1.2-2.42,1.6C27.1,48.6,26.19,48.87,25.22,48.98z M27.76,31.39c1.43-0.62,2.9-1.25,4.38-1.89
				c-0.49-1.09-1.12-2.1-1.84-3.07c-1.36,0.86-2.66,1.78-3.91,2.74C26.85,29.92,27.3,30.66,27.76,31.39z M26.03,42.95
				c-1.01-0.92-1.99-1.8-2.97-2.69c-0.75,0.59-1.61,0.89-2.57,0.96c0.13,0.38,0.23,0.74,0.37,1.09c0.35,0.86,0.73,1.71,1.09,2.56
				c0.04,0.1,0.12,0.14,0.22,0.12c0.22-0.04,0.45-0.07,0.66-0.13c0.88-0.26,1.71-0.65,2.43-1.23
				C25.53,43.41,25.78,43.18,26.03,42.95z M12.45,32.72c-0.36,2.19-0.21,4.29,0.65,6.33c0.26-0.2,0.5-0.39,0.75-0.56
				c0.47-0.31,0.96-0.61,1.44-0.9c0.07-0.05,0.11-0.07,0.07-0.18c-0.18-0.5-0.36-1.01-0.49-1.53c-0.13-0.53-0.17-1.08-0.13-1.62
				c0-0.08-0.02-0.11-0.09-0.15C13.89,33.71,13.15,33.27,12.45,32.72z M21.15,30.3c0.68,0.35,1.22,0.79,1.69,1.32
				c0.08,0.09,0.14,0.11,0.24,0.01c0.33-0.31,0.67-0.62,1.02-0.91c0.61-0.51,1.22-1,1.84-1.51c-0.86-0.99-1.86-1.82-3.1-2.4
				C22.27,27.98,21.71,29.14,21.15,30.3z M16.34,18.04c-0.01-0.01-0.02-0.03-0.03-0.04c-0.43,0.33-0.88,0.63-1.29,0.98
				c-0.67,0.56-1.26,1.21-1.78,1.92c-0.12,0.16-0.24,0.32-0.31,0.5c-0.06,0.16-0.05,0.35-0.04,0.52c0,0.48,0.01,0.96,0.04,1.44
				c0.03,0.44,0.08,0.88,0.13,1.33c0.36-0.42,0.67-0.83,1.03-1.2c0.52-0.53,1.08-1.03,1.72-1.42c0.04-0.02,0.08-0.08,0.08-0.12
				c0.04-0.54,0.07-1.08,0.11-1.62c0.03-0.34,0.06-0.68,0.12-1.02C16.17,18.88,16.26,18.46,16.34,18.04z M16.27,26.66
				c-0.25-1.42-0.36-2.84-0.39-4.33c-0.39,0.31-0.75,0.58-1.08,0.88c-0.57,0.52-1.08,1.1-1.51,1.74c-0.1,0.15-0.13,0.29-0.07,0.46
				c0.23,0.74,0.46,1.48,0.7,2.22c0.07,0.23,0.19,0.45,0.28,0.67C14.81,27.65,15.48,27.09,16.27,26.66z M16.7,17.42
				c0.06-0.01,0.08-0.01,0.09-0.02c0.65-0.33,1.32-0.63,2.02-0.81c0.55-0.15,1.11-0.27,1.67-0.36c0.43-0.07,0.87-0.06,1.31-0.09
				c0.07-0.01,0.16-0.07,0.19-0.13c0.09-0.17,0.16-0.36,0.24-0.54c0.28-0.59,0.57-1.18,0.87-1.8c-0.24,0.04-0.47,0.08-0.71,0.11
				c-0.89,0.12-1.75,0.38-2.59,0.69c-0.88,0.33-1.72,0.75-2.5,1.28c-0.04,0.03-0.1,0.07-0.11,0.12
				C17.03,16.38,16.87,16.88,16.7,17.42z M22.62,26.72c-0.98-0.44-2.03-0.65-3.14-0.62c-0.16,1.22-0.27,2.44-0.33,3.67
				c0.65,0.02,1.24,0.19,1.79,0.43C21.51,29.03,22.06,27.89,22.62,26.72z M43.84,19.48c-1.98-2.66-4.38-4.81-7.33-6.32
				c0.26,0.29,0.54,0.55,0.81,0.82c0.43,0.44,0.84,0.88,1.25,1.33c0.35,0.39,0.71,0.79,1.04,1.19c0.5,0.61,0.99,1.23,1.46,1.86
				c0.4,0.53,0.76,1.08,1.15,1.62c0.05,0.06,0.09,0.1,0.19,0.06C42.88,19.85,43.35,19.67,43.84,19.48z M12.98,25.47
				c-0.35,0.48-0.93,1.75-1.12,2.37c-0.31,1.01-0.56,2.03-0.66,3.07c-0.01,0.09,0,0.2,0.05,0.26c0.31,0.36,0.63,0.71,0.98,1.1
				c0.31-1.37,0.87-2.56,1.69-3.63c0.09-0.12,0.07-0.2,0.03-0.32c-0.26-0.69-0.5-1.39-0.75-2.08
				C13.11,25.99,13.05,25.73,12.98,25.47z M20.84,36.15c-0.02-0.15-0.03-0.29-0.05-0.43c-0.13-0.75-0.49-1.34-1.19-1.69
				c-0.56-0.28-1.22-0.12-1.56,0.4c-0.27,0.41-0.34,0.88-0.26,1.37c0.13,0.75,0.47,1.36,1.15,1.74c0.38,0.21,1.07,0.22,1.44-0.17
				C20.71,37.02,20.84,36.62,20.84,36.15z M14.74,33.9c0.02-0.06,0.04-0.11,0.04-0.15c0.1-0.79,0.36-1.51,0.8-2.17
				c0.06-0.09,0.05-0.14,0-0.23c-0.16-0.24-0.32-0.49-0.47-0.75c-0.32-0.56-0.62-1.13-0.94-1.71c-0.11,0.15-0.23,0.3-0.33,0.46
				c-0.58,0.86-0.96,1.8-1.24,2.79c-0.08,0.26-0.03,0.41,0.19,0.57C13.4,33.14,14.05,33.54,14.74,33.9z M42.42,20.28
				c0.13,0.21,0.27,0.39,0.38,0.59c0.53,0.88,1.05,1.75,1.57,2.63c0.21,0.36,0.4,0.73,0.59,1.1c0.06,0.1,0.11,0.15,0.24,0.1
				c0.12-0.05,0.25-0.08,0.38-0.12c0.3-0.1,0.61-0.21,0.9-0.31c-0.66-1.64-1.5-3.16-2.51-4.59C43.45,19.87,42.95,20.07,42.42,20.28z
				 M10.88,30.64c0.09-0.46,0.16-0.87,0.24-1.28c0.18-0.94,0.47-1.84,0.86-2.71c0.24-0.53,0.55-1.02,0.83-1.53
				c0.04-0.07,0.08-0.15,0.07-0.23c-0.02-0.23-0.08-0.46-0.1-0.69c-0.05-0.66-0.1-1.33-0.14-1.99c-0.01-0.1,0.02-0.21,0.03-0.31
				c-0.2,0.3-0.36,0.62-0.53,0.93c-0.24,0.43-0.53,0.84-0.7,1.3c-0.25,0.69-0.44,1.41-0.61,2.12c-0.13,0.54-0.21,1.1-0.29,1.65
				c-0.06,0.38-0.13,0.76-0.12,1.14c0.01,0.33,0.1,0.67,0.19,1C10.66,30.24,10.77,30.42,10.88,30.64z M21.04,36.34
				c-0.04,0.4-0.15,0.78-0.46,1.15c0.83,0.77,1.64,1.54,2.47,2.32c0.6-0.35,1.45-2.4,1.28-3.15C23.24,36.56,22.14,36.45,21.04,36.34
				z M27.44,31.53c-0.36-0.77-0.83-1.46-1.36-2.16c-1.01,0.84-2,1.68-2.97,2.5c0.3,0.47,0.56,0.89,0.83,1.31
				C25.09,32.64,26.26,32.09,27.44,31.53z M17.3,30.13c0.05-0.02,0.08-0.03,0.1-0.04c0.43-0.2,0.88-0.31,1.36-0.33
				c0.18-0.01,0.18-0.13,0.19-0.24c0.04-0.58,0.07-1.16,0.11-1.74c0.02-0.29,0.07-0.57,0.1-0.86c0.03-0.27,0.05-0.54,0.08-0.83
				c-0.33,0.04-0.64,0.06-0.95,0.12c-0.57,0.11-1.1,0.33-1.63,0.58c-0.12,0.06-0.14,0.13-0.12,0.23c0.16,0.74,0.32,1.47,0.49,2.21
				C17.12,29.53,17.21,29.83,17.3,30.13z M15.19,42.3c0.16-0.54,0.3-1.09,0.5-1.61c0.21-0.53,0.49-1.03,0.72-1.52
				c-0.31-0.47-0.62-0.95-0.93-1.44c-0.29,0.17-0.62,0.35-0.92,0.56c-0.41,0.28-0.81,0.59-1.22,0.89c-0.1,0.08-0.11,0.16-0.05,0.27
				c0.24,0.44,0.47,0.89,0.73,1.32C14.35,41.33,14.75,41.85,15.19,42.3z M48.14,32.5c-0.02-0.35-0.03-0.71-0.06-1.07
				c-0.06-0.65-0.11-1.3-0.18-1.94c-0.09-0.86-0.29-1.71-0.52-2.55c-0.23-0.79-0.5-1.56-0.75-2.34c-0.01-0.04-0.1-0.1-0.13-0.09
				c-0.45,0.14-0.89,0.29-1.34,0.43C46.38,27.38,47.34,29.91,48.14,32.5z M39.94,21.3c1,1.36,1.87,2.78,2.57,4.29
				c0.45-0.15,0.89-0.3,1.34-0.46c-0.33-0.61-0.62-1.21-0.95-1.78c-0.5-0.84-1.03-1.67-1.55-2.5c-0.05-0.08-0.1-0.11-0.2-0.06
				C40.76,20.97,40.36,21.13,39.94,21.3z M23.76,33.53c-1,0.5-1.97,1-2.91,1.48c0.08,0.39,0.16,0.74,0.24,1.11
				c1.08,0.11,2.18,0.21,3.3,0.32C24.38,35.42,24.19,34.46,23.76,33.53z M36.14,49.3c-0.71-0.31-1.44-0.63-2.17-0.95
				c-0.8,0.6-1.67,1.08-2.6,1.44c-0.93,0.36-1.88,0.63-2.82,0.71C31.16,50.9,33.72,50.53,36.14,49.3z M17.88,40.44
				c-0.04,0.24-0.1,0.49-0.13,0.74c-0.06,0.45-0.12,0.9-0.14,1.35c-0.02,0.52-0.01,1.04,0,1.56c0,0.03,0.04,0.08,0.07,0.1
				c0.7,0.38,1.45,0.61,2.25,0.76c-0.5-1.31-0.81-2.65-0.99-3.99C18.59,40.78,18.24,40.62,17.88,40.44z M16.29,27
				c-0.04,0.03-0.1,0.06-0.16,0.09c-0.62,0.4-1.18,0.88-1.68,1.43c-0.09,0.1-0.1,0.18-0.04,0.29c0.29,0.54,0.57,1.08,0.87,1.62
				c0.16,0.28,0.34,0.55,0.52,0.84c0.36-0.45,0.8-0.77,1.26-1.03C16.81,29.16,16.55,28.09,16.29,27z M16.59,39.36
				c0,0,0,0.01-0.01,0.03c-0.52,0.9-0.94,1.84-1.11,2.88c-0.03,0.16-0.03,0.3,0.12,0.42c0.34,0.27,0.66,0.56,1,0.82
				c0.24,0.18,0.5,0.33,0.74,0.49c0.02-0.01,0.03-0.02,0.05-0.03c-0.02-0.22-0.05-0.44-0.04-0.66c0.01-0.36,0.03-0.73,0.07-1.08
				c0.08-0.62,0.18-1.24,0.26-1.86c0-0.04-0.01-0.1-0.04-0.13C17.28,39.95,16.94,39.66,16.59,39.36z M24.51,48.73
				c0-0.01,0.01-0.03,0.02-0.04c-0.15-0.15-0.31-0.29-0.44-0.44c-0.32-0.36-0.65-0.72-0.93-1.11c-0.41-0.57-0.77-1.17-1.15-1.75
				c-0.03-0.04-0.1-0.08-0.14-0.08c-0.27,0.01-0.53,0.04-0.8,0.06c-0.23,0.01-0.47,0-0.7,0c0-0.01,0,0,0,0.01
				c0.46,1.06,1.02,2.05,1.73,2.96c0.06,0.08,0.16,0.15,0.25,0.17c0.38,0.07,0.77,0.13,1.15,0.18
				C23.82,48.71,24.16,48.72,24.51,48.73z M17.68,44.6c0.01,0.03,0.02,0.08,0.03,0.13c0.21,1,0.65,1.86,1.55,2.42
				c0.61,0.38,1.18,0.83,1.89,1.04c0.21,0.06,0.42,0.13,0.68,0.22c-0.71-0.97-1.28-1.95-1.72-3.01c-0.03-0.06-0.12-0.11-0.18-0.13
				c-0.35-0.09-0.71-0.15-1.06-0.25C18.47,44.9,18.08,44.74,17.68,44.6z M22.89,40.01c-0.84-0.8-1.65-1.57-2.45-2.33
				c-0.21,0.09-0.47,0.2-0.74,0.32c0,0.01-0.01,0.04,0,0.07c0.22,0.88,0.44,1.77,0.65,2.65c0.02,0.1,0.06,0.13,0.17,0.13
				c0.51,0.02,1-0.09,1.46-0.27C22.28,40.46,22.55,40.23,22.89,40.01z M49.28,38.68c0.75-1.62,1.21-3.28,1.52-5.02
				c-0.12,0.05-0.21,0.09-0.3,0.13c-0.59,0.22-1.17,0.44-1.76,0.66c-0.09,0.03-0.15,0.06-0.12,0.17c0.1,0.47,0.21,0.93,0.3,1.4
				c0.1,0.59,0.18,1.19,0.26,1.79C49.2,38.08,49.23,38.36,49.28,38.68z M21.8,45.03c-0.03-0.06-0.04-0.08-0.06-0.1
				c-0.59-1.15-1.05-2.35-1.44-3.58c-0.04-0.12-0.1-0.16-0.2-0.18c-0.3-0.04-0.59-0.08-0.91-0.13c0,0.04-0.01,0.09,0,0.14
				c0.06,0.32,0.12,0.64,0.17,0.95c0.15,0.85,0.4,1.67,0.68,2.48c0.09,0.25,0.18,0.43,0.49,0.41C20.95,45.01,21.36,45.03,21.8,45.03
				z M11.14,31.44c-0.13,2.86,0.19,5.59,1.5,8.14c0.19-0.16,0.31-0.32,0.14-0.55c-0.02-0.03-0.02-0.06-0.03-0.1
				c-0.43-1.13-0.7-2.3-0.78-3.5c-0.06-0.95-0.01-1.91,0.17-2.85c0.01-0.05-0.01-0.12-0.05-0.15c-0.12-0.12-0.26-0.22-0.37-0.35
				C11.53,31.88,11.35,31.68,11.14,31.44z M17.52,15.32c0.08-0.06,0.16-0.11,0.24-0.16c0.82-0.52,1.71-0.88,2.61-1.19
				c0.87-0.3,1.76-0.51,2.68-0.61c0.18-0.02,0.31-0.09,0.39-0.28c0.12-0.26,0.28-0.49,0.42-0.74c0.16-0.27,0.33-0.54,0.49-0.81
				C21.81,12.32,19.53,13.59,17.52,15.32z M17.65,36.33c-0.05-0.31-0.1-0.6-0.14-0.9c-0.01-0.1-0.04-0.13-0.13-0.17
				c-0.59-0.23-1.17-0.46-1.75-0.69c-0.18-0.07-0.36-0.16-0.55-0.24c-0.07,1.06,0.24,2.35,0.59,3.03
				C16.33,37.01,16.99,36.67,17.65,36.33z M21.02,30.63c-0.4,1.09-0.79,2.16-1.18,3.22c0.19,0.16,0.35,0.3,0.49,0.41
				c0.79-0.77,1.57-1.54,2.36-2.31C22.22,31.42,21.68,30.98,21.02,30.63z M15.85,31.8c-0.43,0.61-0.62,1.32-0.75,2.05
				c-0.03,0.14,0.01,0.25,0.17,0.31c0.39,0.16,0.77,0.34,1.16,0.5c0.36,0.15,0.72,0.27,1.06,0.4c0.1-0.24,0.2-0.47,0.28-0.7
				c0.01-0.03-0.02-0.09-0.05-0.12c-0.12-0.15-0.26-0.3-0.38-0.46C16.85,33.13,16.35,32.47,15.85,31.8z M45.03,44.74
				c0.01,0.01,0.03,0.02,0.04,0.02c0.15-0.17,0.31-0.33,0.46-0.5c0.33-0.37,0.69-0.71,0.99-1.11c0.52-0.68,1.01-1.39,1.51-2.1
				c0.06-0.09,0.15-0.2,0.15-0.3c-0.01-0.42-0.06-0.85-0.09-1.27c-0.03-0.42-0.07-0.85-0.11-1.27c-0.01-0.12-0.04-0.24-0.06-0.37
				C47.32,40.32,46.36,42.61,45.03,44.74z M19.64,33.75c0.39-1.08,0.78-2.15,1.17-3.22c-0.81-0.32-1.35-0.45-1.7-0.4
				c0,1.16,0,2.32,0,3.47C19.31,33.65,19.47,33.7,19.64,33.75z M18.89,33.56c0-1.13,0-2.3,0-3.47c-0.33-0.04-1.12,0.15-1.42,0.27
				c-0.1,0.04-0.09,0.1-0.07,0.18c0.32,0.93,0.63,1.86,0.95,2.78c0.12,0.36,0.13,0.35,0.5,0.28C18.87,33.61,18.87,33.6,18.89,33.56z
				 M17.9,34.14c0.11-0.1,0.18-0.19,0.26-0.24c0.13-0.08,0.12-0.16,0.07-0.29c-0.27-0.73-0.53-1.46-0.78-2.19
				c-0.1-0.29-0.19-0.59-0.28-0.9c-0.4,0.27-0.76,0.55-1.05,0.91c-0.11,0.13-0.09,0.21,0,0.33C16.71,32.55,17.29,33.33,17.9,34.14z
				 M22.88,32.11c-0.21,0.19-0.39,0.35-0.56,0.52c-0.53,0.53-1.06,1.05-1.58,1.58c-0.23,0.23-0.23,0.23-0.07,0.51
				c0.02,0.03,0.03,0.06,0.05,0.09c0.99-0.5,1.97-1,2.97-1.51C23.4,32.9,23.14,32.51,22.88,32.11z M13.43,19.97
				c0.12-0.1,0.35-0.26,0.54-0.45c0.64-0.66,1.33-1.25,2.13-1.71c0.19-0.11,0.38-0.2,0.42-0.47c0.02-0.18,0.09-0.34,0.14-0.52
				c0.06-0.22,0.12-0.44,0.2-0.7c-0.1,0.06-0.16,0.09-0.22,0.13c-0.53,0.43-1.08,0.84-1.5,1.39c-0.44,0.59-0.9,1.18-1.34,1.77
				C13.64,19.62,13.51,19.85,13.43,19.97z M18.03,46.24c0-0.03,0.01-0.04,0-0.05c-0.3-0.49-0.47-1.02-0.56-1.59
				c-0.02-0.13-0.09-0.2-0.21-0.28c-0.38-0.23-0.74-0.47-1.1-0.73c-0.25-0.18-0.48-0.39-0.75-0.62c0.02,0.25,0.02,0.46,0.07,0.66
				c0.03,0.15,0.1,0.32,0.21,0.43C16.41,44.84,17.16,45.6,18.03,46.24z M15.73,37.58c0.3,0.45,0.59,0.87,0.86,1.28
				c0.38-0.53,0.72-1.04,1.09-1.51c0.21-0.26,0.34-0.49,0.09-0.78c0,0-0.01-0.01-0.03-0.03C17.09,36.87,16.43,37.22,15.73,37.58z
				 M17.74,39.93c0.21-0.74,0.38-1.42,0.59-2.1c0.07-0.24,0.12-0.44-0.13-0.59c-0.03-0.02-0.05-0.06-0.07-0.09
				c-0.01,0.01-0.03,0.02-0.04,0.03c-0.42,0.6-0.84,1.19-1.26,1.8c-0.02,0.03-0.01,0.1,0.02,0.12
				C17.13,39.38,17.42,39.65,17.74,39.93z M20.14,40.86c-0.01-0.06-0.02-0.1-0.03-0.13c-0.21-0.88-0.42-1.76-0.64-2.63
				c-0.02-0.06-0.08-0.13-0.15-0.16c-0.09-0.04-0.2-0.05-0.31-0.07c0,0.05,0,0.1,0,0.15c0.03,0.85,0.07,1.69,0.11,2.54
				c0,0.05,0.07,0.12,0.12,0.13C19.54,40.74,19.84,40.79,20.14,40.86z M33.67,10.73c0.54,0.45,1.08,0.89,1.63,1.33
				c0.04,0.03,0.13,0.03,0.17,0c0.2-0.14,0.39-0.29,0.58-0.44c0.12-0.1,0.24-0.2,0.39-0.32C35.49,11.05,34.59,10.82,33.67,10.73z
				 M22.57,48.9c1.3,0.63,2.66,1.02,4.05,1.3c-0.58-0.37-1.18-0.72-1.7-1.18c-0.03-0.02-0.09-0.01-0.13-0.02
				c-0.49-0.01-0.98-0.02-1.47-0.04C23.07,48.96,22.82,48.92,22.57,48.9z M12.99,39.54c-0.19,0.19-0.21,0.37-0.08,0.59
				c0.31,0.53,0.59,1.08,0.92,1.6c0.29,0.46,0.63,0.89,0.95,1.33c0.12,0.16,0.26,0.32,0.39,0.47c0.02-0.22,0.02-0.42-0.01-0.62
				c-0.01-0.09-0.05-0.2-0.11-0.27c-0.32-0.41-0.67-0.79-0.98-1.21C13.64,40.84,13.3,40.21,12.99,39.54z M18.88,40.56
				c0-0.09,0-0.15,0-0.2c-0.02-0.26-0.06-0.51-0.07-0.77c-0.02-0.54-0.03-1.08-0.04-1.62c0-0.08,0-0.16,0-0.24
				c-0.06-0.03-0.11-0.06-0.18-0.09c-0.22,0.81-0.44,1.62-0.65,2.43C18.26,40.23,18.56,40.39,18.88,40.56z M10.46,30.33
				c-0.15,1.45,0.03,2.86,0.31,4.25c0.03,0,0.06,0,0.09,0c0-0.15,0.02-0.3,0.01-0.45c0-0.11-0.03-0.22-0.04-0.33
				c-0.02-0.64-0.03-1.29-0.04-1.93c0-0.09,0.03-0.18,0.02-0.26c-0.02-0.25,0.11-0.5-0.06-0.74C10.65,30.69,10.56,30.5,10.46,30.33z
				 M32.05,11.03c-0.1-0.07-0.2-0.14-0.29-0.21c-0.3-0.26-0.62-0.4-1.03-0.37c-0.54,0.04-1.08,0.05-1.61,0.08
				c-0.25,0.01-0.51,0.06-0.76,0.08C29.6,10.55,30.82,10.77,32.05,11.03z M34.82,50.21c0,0.01,0,0.01,0,0.02
				c0.73-0.19,1.46-0.39,2.19-0.58c0-0.02,0-0.03,0-0.05c-0.15-0.06-0.31-0.11-0.47-0.16c-0.03-0.01-0.07,0.01-0.1,0.02
				C35.9,49.7,35.36,49.96,34.82,50.21z"/>
			<polygon class="st2" points="5.03,40.56 4.27,41.3 4.32,40.24 3.27,40.11 4.13,39.49 3.58,38.59 4.59,38.87 4.95,37.88 
				5.37,38.85 6.37,38.52 5.87,39.44 6.75,40.02 5.72,40.2 5.82,41.25 			"/>
			<polygon class="st2" points="2.3,34.53 3.08,33.81 3,34.86 4.04,35.02 3.17,35.62 3.7,36.53 2.69,36.22 2.3,37.21 1.92,36.22 
				0.91,36.53 1.43,35.62 0.56,35.02 1.61,34.86 1.53,33.81 			"/>
		</g>
	</g>
	<polygon class="st2" points="60.59,16.23 62.33,15.4 61.63,17.2 63.37,18.04 61.52,18.62 61.95,20.5 60.35,19.41 59.14,20.92 
		58.99,18.99 57.06,18.99 58.47,17.67 57.27,16.16 59.18,16.44 59.62,14.56 	"/>
	<polygon class="st2" points="55.55,23.22 56.86,23.15 55.95,24.1 56.81,25.08 55.51,24.96 55.27,26.25 54.56,25.15 53.4,25.77 
		53.82,24.53 52.61,24.01 53.84,23.56 53.49,22.29 54.61,22.98 55.38,21.91 	"/>
	<polygon class="st2" points="61.43,27.44 62.14,28.41 60.96,28.19 60.65,29.36 60.08,28.29 58.97,28.78 59.45,27.67 58.38,27.11 
		59.54,26.79 59.32,25.6 60.29,26.31 61.08,25.39 61.13,26.6 62.34,26.64 	"/>
</g>
</svg>
